HIERARCHY
ROOT Hips
{
    OFFSET 0.000000 0.000000 0.000000
    CHANNELS 6 Xposition Yposition Zposition Zrotation Xrotation Yrotation
    JOINT Spine
    {
        OFFSET -0.000000 7.883683 0.000000
        CHANNELS 3 Zrotation Xrotation Yrotation
        JOINT Spine1
        {
            OFFSET -0.000000 24.776327 0.000000
            CHANNELS 3 Zrotation Xrotation Yrotation
            JOINT Neck
            {
                OFFSET -0.000000 24.674574 2.243143
                CHANNELS 3 Zrotation Xrotation Yrotation
                JOINT Head
                {
                    OFFSET -0.000000 13.459947 -1.922849
                    CHANNELS 3 Zrotation Xrotation Yrotation
                    End Site
                    {
                        OFFSET -0.000000 24.035618 0.000000
                    }
                }
            }
            JOINT LeftShoulder
            {
                OFFSET 3.810223 22.323311 -0.325006
                CHANNELS 3 Zrotation Xrotation Yrotation
                JOINT LeftArm
                {
                    OFFSET 12.560579 0.000000 0.000000
                    CHANNELS 3 Zrotation Xrotation Yrotation
                    JOINT LeftForeArm
                    {
                        OFFSET 28.806782 0.000000 0.000000
                        CHANNELS 3 Zrotation Xrotation Yrotation
                        JOINT LeftHand
                        {
                            OFFSET 23.813900 0.000000 0.000000
                            CHANNELS 3 Zrotation Xrotation Yrotation
                            End Site
                            {
                                OFFSET 14.421371 0.000000 0.000000
                            }
                        }
                    }
                }
            }
            JOINT RightShoulder
            {
                OFFSET -3.823061 22.323311 -0.325006
                CHANNELS 3 Zrotation Xrotation Yrotation
                JOINT RightArm
                {
                    OFFSET -12.560579 0.000000 0.000000
                    CHANNELS 3 Zrotation Xrotation Yrotation
                    JOINT RightForeArm
                    {
                        OFFSET -28.806782 0.000000 0.000000
                        CHANNELS 3 Zrotation Xrotation Yrotation
                        JOINT RightHand
                        {
                            OFFSET -23.813900 0.000000 0.000000
                            CHANNELS 3 Zrotation Xrotation Yrotation
                            End Site
                            {
                                OFFSET -14.421371 0.000000 0.000000
                            }
                        }
                    }
                }
            }
        }
    }
    JOINT LeftUpLeg
    {
        OFFSET 9.614247 0.000000 0.000000
        CHANNELS 3 Zrotation Xrotation Yrotation
        JOINT LeftLeg
        {
            OFFSET -0.000000 -41.464203 0.000000
            CHANNELS 3 Zrotation Xrotation Yrotation
            JOINT LeftFoot
            {
                OFFSET -0.000000 -34.276012 0.000000
                CHANNELS 3 Zrotation Xrotation Yrotation
                JOINT LeftToeBase
                {
                    OFFSET -0.000000 -6.249260 14.421371
                    CHANNELS 3 Zrotation Xrotation Yrotation
                    End Site
                    {
                        OFFSET -0.000000 0.000000 3.845699
                    }
                }
            }
        }
    }
    JOINT RightUpLeg
    {
        OFFSET -9.614247 0.000000 0.000000
        CHANNELS 3 Zrotation Xrotation Yrotation
        JOINT RightLeg
        {
            OFFSET -0.000000 -41.464203 0.000000
            CHANNELS 3 Zrotation Xrotation Yrotation
            JOINT RightFoot
            {
                OFFSET -0.000000 -34.276012 0.000000
                CHANNELS 3 Zrotation Xrotation Yrotation
                JOINT RightToeBase
                {
                    OFFSET -0.000000 -6.249260 14.421371
                    CHANNELS 3 Zrotation Xrotation Yrotation
                    End Site
                    {
                        OFFSET -0.000000 0.000000 3.845699
                    }
                }
            }
        }
    }
}
MOTION
Frames:    13
Frame Time:    0.004000
-3.252208    110.956886    -69.377510    1.112851    -19.370792    -1.351733    -4.498819    37.963406    1.875728    -2.077803    -7.247002    0.195856    5.012715    13.697082    -4.890375    0.775962    -0.975079    -5.093281    -0.882068    2.780559    6.727130    -43.408825    36.201996    -22.389080    7.446235    -11.435008    -36.820393    -9.964566    -7.765296    -14.148469    -2.397984    1.625851    8.738512    47.510151    27.925844    13.220985    -11.483611    1.356468    44.540592    12.688697    6.032662    -0.313417    1.634748    -35.225842    9.035655    175.530518    66.027206    -172.939911    0.817630    -20.661173    19.624531    0.000000    0.000000    0.000000    1.548845    -29.640099    -3.464188    -176.302216    57.502281    -157.109116    -16.716608    -23.738173    -45.075809    0.000000    0.000000    0.000000    
-3.229905    111.032867    -69.096581    1.144585    -19.572372    -1.241430    -4.645626    38.369793    1.932733    -1.937041    -7.048548    0.196235    5.010533    13.365532    -4.912671    0.832085    -1.009529    -5.123243    -1.201444    2.832260    6.546296    -43.244270    36.227413    -23.037596    7.064765    -11.136691    -35.930893    -9.896436    -7.656107    -14.181617    -2.386744    1.602788    8.712015    47.913929    28.305824    13.379002    -10.931997    1.607086    42.965664    12.217899    5.888447    -0.250651    1.652039    -35.335442    8.997641    174.448212    67.607849    -172.020493    1.094705    -20.547670    19.643593    0.000000    0.000000    0.000000    1.582790    -29.922171    -3.698335    -175.506500    58.699688    -158.738098    -17.205019    -23.632502    -44.117062    0.000000    0.000000    0.000000    
-3.190836    111.097122    -68.822655    1.177987    -19.668112    -1.140535    -4.761677    38.696785    1.933190    -1.786023    -6.863773    0.153201    4.874633    12.984881    -4.866889    1.010205    -0.976217    -5.062614    -1.413195    2.768279    6.613418    -43.289497    36.276016    -23.698145    6.674706    -10.822196    -34.991459    -10.170216    -7.471282    -14.393722    -2.438762    1.591495    8.709241    48.379528    28.951191    13.576341    -10.782257    1.731037    41.303448    12.236633    5.789129    -0.099856    1.645435    -35.531361    8.989286    173.049103    69.260330    -171.399857    1.254900    -20.431118    20.408020    0.000000    0.000000    0.000000    1.587413    -30.289135    -3.942179    -174.603027    60.053730    -160.777924    -16.966660    -23.898558    -42.854115    0.000000    0.000000    0.000000    
-3.179053    111.144257    -68.541206    1.189094    -19.767288    -1.029425    -4.872058    39.030506    1.936429    -1.692883    -6.754372    0.109079    4.932496    12.756609    -4.845510    1.053098    -1.073917    -5.045281    -1.458960    2.685609    6.559026    -43.607243    36.351437    -24.085674    6.338767    -10.476472    -34.146198    -10.148561    -7.266017    -14.566132    -2.413597    1.695383    8.709130    48.709152    29.347256    13.803681    -10.327463    2.033876    39.801319    12.221937    5.784955    0.089978    1.692394    -35.677288    9.050992    171.309067    70.960724    -169.944977    1.218196    -20.008175    20.444967    0.000000    0.000000    0.000000    1.627307    -30.561230    -4.108907    -173.777542    61.532784    -162.399475    -17.442574    -23.819361    -41.914738    0.000000    0.000000    0.000000    
-3.154028    111.183205    -68.260666    1.212489    -19.758314    -0.925711    -4.938070    39.186867    1.945168    -1.725455    -6.590828    0.087011    5.171949    12.592330    -4.850502    1.054191    -1.177503    -5.065129    -1.385728    2.630311    6.364788    -44.263248    36.131496    -24.298748    6.052134    -10.026037    -33.387993    -10.115870    -6.944191    -14.597906    -2.191283    1.848005    8.716582    48.860199    29.775400    13.944708    -9.924962    2.220133    38.375729    12.446758    5.695139    0.179097    1.700030    -35.849297    9.103829    169.215378    72.887634    -166.906952    1.025175    -19.303802    19.452276    0.000000    0.000000    0.000000    1.648672    -30.869751    -4.243880    -172.791718    63.167831    -164.229507    -17.375458    -24.056507    -40.922054    0.000000    0.000000    0.000000    
-3.135637    111.204994    -67.993530    1.212438    -19.678219    -0.826362    -5.001318    39.349182    1.917928    -1.613385    -6.473982    0.037437    5.128447    12.245447    -4.806886    1.143586    -1.135108    -5.021591    -1.265255    2.277431    6.389641    -44.746300    36.729271    -24.409555    5.847435    -9.809474    -32.840214    -9.930069    -6.854932    -14.440112    -2.281642    1.906978    8.627901    49.235069    30.294128    14.214754    -9.574303    2.466441    36.920502    12.475465    5.692786    0.273052    1.870380    -36.103401    9.100882    167.469696    74.766708    -165.530090    1.166935    -18.404104    19.649527    0.000000    0.000000    0.000000    1.710006    -31.222748    -4.518947    -171.444275    64.874405    -166.876022    -17.460619    -24.045139    -39.528061    0.000000    0.000000    0.000000    
-3.095005    111.206902    -67.688713    1.254930    -19.682272    -0.714993    -4.906737    39.566002    1.834482    -1.931604    -6.441959    -0.039232    5.586052    12.127283    -4.802012    1.036751    -1.190546    -5.055622    -0.857171    2.331693    6.256107    -45.302444    37.050346    -24.678968    5.734058    -9.597851    -32.318996    -9.750205    -6.753757    -14.117323    -1.908503    2.094135    8.613020    49.347672    30.792213    14.311801    -9.229198    2.854319    35.527870    12.834253    5.847219    0.332080    1.795617    -36.116409    9.163470    163.930298    76.798042    -161.494888    1.575323    -17.433857    19.038698    0.000000    0.000000    0.000000    1.694262    -31.384758    -4.807768    -169.494064    66.634132    -169.046692    -17.301901    -24.195299    -38.795628    0.000000    0.000000    0.000000    
-3.097070    111.197365    -67.372520    1.186470    -19.640991    -0.639852    -4.949949    39.643948    1.858682    -1.748524    -6.214199    -0.021211    5.441833    11.760821    -4.822703    1.219927    -1.068771    -5.063442    -1.046494    2.455001    6.291449    -45.280922    37.210484    -25.248293    5.550597    -9.315095    -31.940456    -9.644037    -6.582296    -13.794866    -2.094822    2.236106    8.386326    49.736794    31.183849    14.659142    -8.939873    3.265618    34.233727    13.253078    6.058843    0.368733    1.931107    -36.193630    9.657523    157.845230    78.564682    -155.320480    1.538934    -16.237600    18.789925    0.000000    0.000000    0.000000    1.719341    -31.595089    -4.741612    -168.856354    68.719635    -171.020935    -17.053881    -23.752810    -36.869675    0.000000    0.000000    0.000000    
-3.059151    111.170700    -67.077950    1.216738    -19.492868    -0.572818    -4.975063    39.647278    1.830223    -1.795710    -6.118000    -0.058330    5.533127    11.651196    -4.782554    1.323442    -1.138127    -5.014647    -0.841439    2.490357    6.299085    -45.646938    37.729946    -25.531116    5.484427    -9.182945    -31.659481    -9.233008    -6.567153    -13.367003    -2.009686    2.393833    8.316276    49.987976    31.621311    14.774085    -8.705735    3.743647    33.051506    13.559807    6.356700    0.289235    1.914589    -36.300667    9.825214    150.969147    80.421043    -148.282425    1.634391    -14.916057    18.393362    0.000000    0.000000    0.000000    1.731845    -31.803471    -4.924706    -166.752243    70.771606    -174.364944    -16.839748    -23.691053    -35.136719    0.000000    0.000000    0.000000    
-3.037980    111.130524    -66.759186    1.187792    -19.345148    -0.523728    -4.972930    39.610184    1.805961    -1.801462    -6.015523    -0.079758    5.649709    11.475519    -4.765485    1.317440    -1.007490    -5.013534    -0.642891    2.658523    6.336680    -45.947937    38.195347    -25.991043    5.450155    -9.073043    -31.295168    -8.958278    -6.542248    -13.047606    -1.955711    2.594139    8.234423    50.238869    32.056789    14.902818    -8.439919    4.245656    31.876932    13.785727    6.680967    0.256134    2.005179    -36.311310    9.918694    141.405899    82.220245    -138.762131    1.826320    -13.533236    18.094189    0.000000    0.000000    0.000000    1.818376    -31.915569    -5.085311    -163.770905    72.887482    -178.374588    -15.956672    -23.962099    -33.321636    0.000000    0.000000    0.000000    
-3.008988    111.071991    -66.422363    1.156275    -19.176401    -0.488899    -4.970318    39.427601    1.816344    -1.773981    -5.756197    -0.054488    5.785314    11.213639    -4.864615    1.180534    -0.792213    -5.159706    -0.472614    2.731131    6.270596    -46.314545    38.644798    -26.314520    5.434363    -8.988121    -31.000637    -8.786990    -6.523781    -12.685258    -1.930431    2.688129    8.061561    50.537567    32.481339    14.956746    -8.233471    4.707079    30.817225    14.326766    6.996381    0.218294    2.165362    -36.371349    10.087241    128.177551    83.707985    -125.527222    1.819907    -11.787479    17.970417    0.000000    0.000000    0.000000    1.895304    -31.999819    -5.270106    -159.943802    75.107864    176.397369    -15.358860    -23.656343    -31.091354    0.000000    0.000000    0.000000    
-2.984391    111.004349    -66.080841    1.097526    -19.072737    -0.404227    -4.937036    39.352863    1.766500    -1.694096    -5.600372    -0.089099    5.844015    11.163165    -4.846660    1.142379    -0.784924    -5.152261    -0.320978    2.937796    6.338207    -46.741890    38.974857    -26.675114    5.501974    -8.840366    -30.746731    -8.686025    -6.403619    -12.385989    -1.809547    2.991393    7.989395    50.591789    32.764217    15.070262    -7.939464    5.265712    29.887426    14.564871    7.387850    0.094212    2.237662    -36.230312    10.217405    106.434547    84.612381    -103.682335    1.570103    -10.033636    17.795324    0.000000    0.000000    0.000000    1.945920    -31.927307    -5.452412    -154.958817    77.348076    170.768646    -14.816357    -23.221758    -29.522223    0.000000    0.000000    0.000000    
-2.952592    110.925125    -65.725418    1.066234    -18.883698    -0.360636    -4.966527    39.142502    1.749653    -1.581481    -5.421789    -0.096014    5.821892    11.144006    -4.831477    1.180267    -0.780947    -5.130836    -0.211986    3.125953    6.414253    -47.009960    39.690620    -27.096273    5.832808    -8.984971    -30.507879    -8.814276    -6.495180    -11.899834    -1.804443    3.265754    7.928542    50.808163    33.036186    15.095792    -7.652727    5.777436    28.980362    14.880503    7.737270    -0.059408    2.294217    -36.086613    10.358411    79.354401    84.573090    -75.775513    1.304778    -8.296043    16.925047    0.000000    0.000000    0.000000    1.972309    -31.900148    -5.584978    -147.622345    79.631210    161.841721    -13.009979    -23.125626    -26.984282    0.000000    0.000000    0.000000    
